<svg width="16" height="14" viewBox="0 0 16 14" fill="none" xmlns="http://www.w3.org/2000/svg">
<g clip-path="url(#clip0_61385:198)">
<path d="M7.99902 0.371674C3.58202 0.371674 1.52588e-05 3.41444 1.52588e-05 7.16798C1.52588e-05 10.1701 2.29202 12.7171 5.47202 13.6165C5.87202 13.6791 6.01802 13.4693 6.01802 13.2891C6.01802 13.1274 6.01102 12.7001 6.00702 12.1332C3.78202 12.5436 3.31202 11.2219 3.31202 11.2219C2.94902 10.4367 2.42402 10.2277 2.42402 10.2277C1.69702 9.80629 2.47802 9.81475 2.47802 9.81475C3.28102 9.86298 3.70302 10.5154 3.70302 10.5154C4.41702 11.5536 5.57602 11.2541 6.03202 11.0798C6.10402 10.6406 6.31102 10.3411 6.54002 10.171C4.76402 9.99921 2.89602 9.41621 2.89602 6.8126C2.89602 6.07052 3.20802 5.46383 3.72002 4.98829C3.63702 4.81652 3.36302 4.12521 3.79802 3.19021C3.79802 3.19021 4.47002 3.00744 5.99802 3.8866C6.63602 3.73598 7.32002 3.66067 8.00102 3.65814C8.68002 3.66152 9.36501 3.73598 10.004 3.88744C11.531 3.00829 12.202 3.19106 12.202 3.19106C12.638 4.1269 12.364 4.81737 12.282 4.98914C12.795 5.46467 13.104 6.07137 13.104 6.81344C13.104 9.42383 11.234 9.99837 9.45201 10.1667C9.73901 10.3766 9.99502 10.7912 9.99502 11.425C9.99502 12.3338 9.98501 13.0665 9.98501 13.2891C9.98501 13.471 10.129 13.6825 10.535 13.6157C13.71 12.7154 16 10.1693 16 7.16798C16 3.41444 12.418 0.371674 7.99902 0.371674Z" fill="#C4C4CC"/>
</g>
<defs>
<clipPath id="clip0_61385:198">
<rect width="16" height="13.5385" fill="white" transform="translate(1.52588e-05 0.230774)"/>
</clipPath>
</defs>
</svg>
